<?xml version="1.0" encoding="utf-8"?>
<!-- Generator: Adobe Illustrator 27.5.0, SVG Export Plug-In . SVG Version: 6.00 Build 0)  -->
<svg version="1.1" xmlns="http://www.w3.org/2000/svg" xmlns:xlink="http://www.w3.org/1999/xlink" x="0px" y="0px"
	 viewBox="0 0 500 500" style="enable-background:new 0 0 500 500;" xml:space="preserve">
<g id="BACKGROUND">
</g>
<g id="OBJECTS">
	<path style="opacity:0.1;" d="M187,257.624c-3.828,0.831-7.19,2.01-10.139,3.349c-2.521-0.803-6.34-3.252-10.391-6.312
		c3.668-1.531,7.231-4.594,9.284-7.201c3.142-0.692,5.881-2.578,6.425-6.688c0,0-14.34-7.472-17.772-11.251
		c-3.431-3.78-23.035-23.904-28.983-23.904c-18.381,0-55.742,28.163-59.736,35.73c-3.994,7.567-9.993,25.808-14.931,45.326
		c-4.938,19.518-6.098,39.745-9.308,49.659c-3.21,9.914-7.688,21.092-18.299,45.293c-5.878,13.406-17.806,44.912-27.279,70.355
		v50.256h59.667h12.01c4.034-31.487,16.193-123.129,23.053-139.205c7.016-16.444,13.958-20.047,21.627-23.912
		c1.413-0.712,2.85-1.433,4.317-2.245c0.288-0.16,0.589-0.328,0.901-0.504c0.156-0.088,0.322-0.184,0.483-0.276
		c0.16-0.091,0.315-0.179,0.48-0.274c0.253-0.146,0.518-0.301,0.783-0.456c0.077-0.045,0.15-0.087,0.228-0.133
		c0.304-0.179,0.618-0.366,0.936-0.556c0.047-0.028,0.092-0.054,0.139-0.083c0.35-0.21,0.71-0.428,1.076-0.651
		c0.015-0.009,0.029-0.018,0.044-0.027c4.231-2.586,9.457-6.058,14.757-10.184c0,0,0,0,0,0l0,0
		c8.252-6.426,16.674-14.437,21.761-23.173c8.027-13.786,13.983-11.284,17.785-17.878c0.001-0.001,0.002-0.001,0.003-0.003
		c4.238-4.324,5.211-8.121,14.583-13.485C205.556,266.3,199.575,254.895,187,257.624z M148.684,279.787c0,0-5.375,0.32-9.167,3.013
		c0,0-5.259-2.649-9.986-7.118c-0.374-0.354-0.824-0.731-1.317-1.124c5.873-4.739,11.502-10.578,14.657-13.304
		c6.296-5.44,10.246,8.099,18.028,11.885c-0.156,0.209-0.243,0.335-0.243,0.335S151.745,274.901,148.684,279.787z"/>
	<path style="fill:#D89371;" d="M172.5,250.609c-2.302,0-6.927-2.935-11.901-6.824c7.109-3.069,13.837-12.099,9.901-12.099
		c-5.237,0-22.5-15.187-28.528-22.25c-6.029-7.063-31.972,8.063-38.472,17.45c0,0-8,20.113,0,25.113
		c0.002,0.001,0.004,0.002,0.007,0.003c-1.694,6.346-3.123,15.721,1.993,18.919c8,5,25-14.5,31.5-20.313
		c6.5-5.813,10.5,9.313,18.799,12.649C164.097,266.595,177.736,250.609,172.5,250.609z"/>
	<path style="fill:#EDB08E;" d="M158.536,217.769c-3.431-3.911-23.035-24.738-28.983-24.738c-18.381,0-55.742,29.146-59.736,36.977
		c-3.994,7.831-9.993,26.709-14.931,46.908c-4.938,20.199-6.098,41.132-9.308,51.392c-3.21,10.26-7.688,21.828-18.299,46.874
		C21.402,389.054,9.473,421.659,0,447.991V500h71.676c4.034-32.585,16.193-127.425,23.053-144.062
		c7.016-17.018,13.958-20.746,21.627-24.746C122,309.27,122,298.5,123.66,265.541c-3.218-3.149-11.592-7.917-12.487-12.541
		c-2.21-11.414-7.673-21.313,15.327-34.838c0,0,16.771,10.665,21.854,10.082c0,0,8.174,5.804,11.981,7.335
		c3.806,1.531,14.82,2.849,15.973-6.166C176.308,229.413,161.967,221.68,158.536,217.769z"/>
	<g>
		<path style="opacity:0.1;" d="M344.477,408.491H155.523c-7.484,0-13.552-6.067-13.552-13.552V115.158
			c0-7.485,6.067-13.552,13.552-13.552h188.953c7.484,0,13.552,6.067,13.552,13.552v279.782
			C358.028,402.424,351.961,408.491,344.477,408.491z"/>
		<path style="fill:#00A8A8;" d="M344.477,402.579H155.523c-7.484,0-13.552-6.067-13.552-13.552V109.246
			c0-7.485,6.067-13.552,13.552-13.552h188.953c7.484,0,13.552,6.067,13.552,13.552v279.782
			C358.028,396.512,351.961,402.579,344.477,402.579z"/>
		<rect x="154.481" y="106.778" style="fill:#FFFFFF;" width="191.038" height="284.718"/>
		<rect x="210.5" y="158" style="fill:#B3B3B3;" width="116" height="9.601"/>
		<rect x="210.5" y="175.45" style="fill:#D6D6D6;" width="116" height="9.601"/>
		<rect x="172.5" y="192.899" style="fill:#D6D6D6;" width="154" height="9.601"/>
		<path style="fill:#D6D6D6;" d="M210.589,106.778c0.06,2.68,2.241,4.836,4.935,4.836h68.954c2.694,0,4.875-2.157,4.935-4.836
			H210.589z"/>
		<path style="fill:#D6D6D6;" d="M284.477,82.397H260.66c0-5.887-4.773-10.66-10.66-10.66c-5.887,0-10.66,4.773-10.66,10.66h-23.817
			c-2.731,0-4.945,2.214-4.945,4.945v16.703c0,2.731,2.214,4.945,4.945,4.945h68.954c2.731,0,4.945-2.214,4.945-4.945V87.342
			C289.422,84.611,287.208,82.397,284.477,82.397z M250,86.586c-2.314,0-4.189-1.876-4.189-4.189c0-2.314,1.876-4.189,4.189-4.189
			s4.189,1.876,4.189,4.189C254.189,84.71,252.314,86.586,250,86.586z"/>
		<path style="fill:#CCCCCC;" d="M210.578,99.628v4.417c0,2.731,2.214,4.945,4.945,4.945h68.954c2.731,0,4.945-2.214,4.945-4.945
			v-4.417H210.578z"/>
		<g>
			<path style="fill:#D6D6D6;" d="M196.842,163v17.05H177.5V163H196.842 M201.842,158H172.5v27.05h29.342V158L201.842,158z"/>
		</g>
		<rect x="210.5" y="218.637" style="fill:#B3B3B3;" width="116" height="9.601"/>
		<rect x="210.5" y="236.086" style="fill:#D6D6D6;" width="116" height="9.601"/>
		<rect x="172.5" y="253.536" style="fill:#D6D6D6;" width="154" height="9.601"/>
		<rect x="172.5" y="329.294" style="fill:#D6D6D6;" width="68.5" height="9.601"/>
		<rect x="172.5" y="346.137" style="fill:#D6D6D6;" width="37.5" height="9.601"/>
		<rect x="258.287" y="329.294" style="fill:#D6D6D6;" width="68.5" height="9.601"/>
		<rect x="258.287" y="346.137" style="fill:#D6D6D6;" width="37.5" height="9.601"/>
		<g>
			<path style="fill:#D6D6D6;" d="M196.842,223.637v17.05H177.5v-17.05H196.842 M201.842,218.637H172.5v27.05h29.342V218.637
				L201.842,218.637z"/>
		</g>
		<rect x="172.5" y="279.273" style="fill:#B3B3B3;" width="154" height="9.441"/>
		<g>
			<path style="fill:#D6D6D6;" d="M236.209,300.418v17.05H177.5v-17.05H236.209 M241.209,295.418H172.5v27.05h68.709V295.418
				L241.209,295.418z"/>
		</g>
		<g>
			<path style="fill:#D6D6D6;" d="M321.5,300.418v17.05h-58.709v-17.05H321.5 M326.5,295.418h-68.709v27.05H326.5V295.418
				L326.5,295.418z"/>
		</g>
		
			<polyline style="fill:none;stroke:#39B54A;stroke-width:5.7917;stroke-linecap:round;stroke-linejoin:round;stroke-miterlimit:10;" points="
			204.408,158.953 187.112,176.249 178.092,167.228 		"/>
		
			<polyline style="fill:none;stroke:#39B54A;stroke-width:5.7917;stroke-linecap:round;stroke-linejoin:round;stroke-miterlimit:10;" points="
			204.408,218.637 187.112,235.932 178.092,226.912 		"/>
		<g>
			<text transform="matrix(1 0 0 1 171.981 140.542)" style="fill:#808080; font-family:'Montserrat-Bold'; font-size:13.7205px;">REGISTRATION FORM</text>
		</g>
	</g>
	<path style="opacity:0.1;" d="M187,257.624c-3.828,0.831-7.19,2.01-10.139,3.349c-1.498-0.477-3.459-1.544-5.649-2.966
		c-1.698,1.466-3.434,2.885-5.221,4.237c-3.108,2.351-6.696,4.918-10.544,6.408c1.628,1.821,3.407,3.492,5.453,4.487
		c-0.156,0.209-0.243,0.335-0.243,0.335s-8.911,1.426-11.972,6.312c0,0-3.622,0.219-7.018,1.786v25.668h0.336v19.755
		c1.439-1.038,2.898-2.12,4.368-3.265c0,0,0,0,0,0c8.252-6.426,16.674-14.437,21.761-23.173
		c8.027-13.786,13.983-11.284,17.785-17.878c0.001-0.001,0.002-0.001,0.003-0.003c4.238-4.324,5.211-8.121,14.583-13.485
		C205.556,266.3,199.575,254.895,187,257.624z"/>
	<g>
		<path style="opacity:0.1;" d="M299.481,394.115C299.481,394.115,299.482,394.115,299.481,394.115
			c0.045,0.037,0.091,0.072,0.136,0.108c0.43,0.348,0.866,0.693,1.306,1.033c0.171,0.132,0.344,0.262,0.517,0.393
			c0.319,0.243,0.64,0.485,0.963,0.724c0.197,0.145,0.395,0.289,0.593,0.432c0.309,0.224,0.619,0.446,0.931,0.666
			c0.202,0.142,0.403,0.284,0.606,0.424c0.323,0.224,0.649,0.445,0.975,0.666c0.19,0.128,0.38,0.258,0.572,0.385
			c0.388,0.258,0.78,0.512,1.172,0.765c0.13,0.084,0.259,0.169,0.389,0.252c0.517,0.33,1.036,0.654,1.558,0.974
			c0.165,0.102,0.332,0.201,0.498,0.301c0.366,0.222,0.732,0.443,1.099,0.66c0.208,0.123,0.416,0.244,0.624,0.365
			c0.329,0.192,0.658,0.382,0.988,0.571c0.217,0.124,0.434,0.247,0.651,0.369c0.33,0.186,0.66,0.369,0.99,0.551
			c0.211,0.116,0.421,0.232,0.632,0.346c0.362,0.196,0.723,0.389,1.084,0.581c0.174,0.093,0.348,0.187,0.522,0.278
			c0.529,0.278,1.057,0.552,1.583,0.82c0.111,0.056,0.221,0.11,0.331,0.166c0.425,0.215,0.849,0.428,1.271,0.636
			c0.195,0.096,0.388,0.19,0.582,0.284c0.337,0.165,0.674,0.328,1.009,0.489c0.211,0.101,0.421,0.201,0.631,0.3
			c0.323,0.153,0.645,0.304,0.966,0.453c0.207,0.096,0.413,0.192,0.618,0.286c0.333,0.153,0.664,0.303,0.995,0.452
			c0.183,0.083,0.368,0.167,0.55,0.248c0.428,0.191,0.853,0.378,1.276,0.562c0.08,0.035,0.16,0.071,0.24,0.105
			c0.498,0.216,0.991,0.427,1.479,0.633c0.161,0.068,0.319,0.133,0.479,0.2c0.332,0.139,0.663,0.277,0.99,0.411
			c0.183,0.075,0.363,0.148,0.544,0.222c0.301,0.123,0.6,0.243,0.896,0.362c0.182,0.073,0.363,0.145,0.544,0.217
			c0.295,0.117,0.585,0.231,0.874,0.343c0.168,0.065,0.336,0.131,0.502,0.195c0.329,0.127,0.652,0.25,0.972,0.371
			c0.115,0.043,0.232,0.089,0.346,0.131c0.432,0.163,0.857,0.32,1.272,0.472c0.092,0.034,0.179,0.065,0.27,0.098
			c0.32,0.117,0.636,0.231,0.944,0.341c0.148,0.053,0.292,0.103,0.437,0.155c0.248,0.088,0.494,0.174,0.734,0.257
			c0.147,0.051,0.291,0.101,0.434,0.15c0.233,0.08,0.462,0.158,0.687,0.234c0.136,0.046,0.272,0.092,0.405,0.137
			c0.24,0.08,0.472,0.157,0.701,0.232c0.1,0.033,0.204,0.067,0.302,0.099c0.326,0.106,0.643,0.208,0.945,0.303
			c10.36,3.269,18.699,3.018,31.08,20.875c7.859,11.334,19.787,42.522,27.455,63.798h82.585
			c-12.595-18.978-30.523-45.816-40.047-59.271c-15.666-22.132-22.489-32.444-27.795-41.749c-3.245-5.69-6.586-15.427-10.771-26.387
			c0.053-0.151,0.104-0.303,0.146-0.461c0.75-2.775-0.5-5.508-2.779-6.274c-1.978-4.925-4.143-9.973-6.559-14.915
			c-9.097-18.611-18.951-35.713-24.51-42.491c-3.455-4.213-13.061-3.874-21.657-4.041c-0.048-0.001-0.096-0.002-0.144-0.003
			c-0.774-0.016-1.538-0.037-2.289-0.065c-0.087-0.003-0.176-0.005-0.263-0.009c-0.327-0.013-0.649-0.029-0.971-0.046
			c-0.088-0.005-0.178-0.008-0.266-0.013c-0.339-0.019-0.672-0.042-1.003-0.065c-0.066-0.005-0.135-0.008-0.201-0.013
			c-0.32-0.024-0.632-0.053-0.943-0.082c-0.074-0.007-0.151-0.012-0.225-0.02c-0.271-0.027-0.533-0.059-0.796-0.091
			c-0.109-0.013-0.222-0.024-0.33-0.038c-0.267-0.035-0.526-0.076-0.784-0.117c-0.096-0.015-0.196-0.027-0.291-0.043
			c-0.238-0.04-0.466-0.087-0.696-0.133c-0.107-0.022-0.22-0.04-0.326-0.062c-0.226-0.049-0.44-0.105-0.656-0.16
			c-0.1-0.026-0.206-0.047-0.305-0.074c-0.197-0.054-0.382-0.116-0.569-0.176c-0.108-0.034-0.223-0.065-0.327-0.101
			c-0.157-0.055-0.301-0.117-0.45-0.177c-0.125-0.049-0.256-0.094-0.376-0.147c-0.263-0.116-0.513-0.24-0.75-0.374
			c-0.235-0.132-0.48-0.275-0.735-0.426c-0.107-0.064-0.222-0.135-0.333-0.201c-0.151-0.091-0.299-0.18-0.457-0.277
			c-0.139-0.086-0.286-0.178-0.429-0.268c-0.138-0.087-0.273-0.17-0.416-0.26c-0.172-0.109-0.352-0.225-0.529-0.339
			c-0.12-0.077-0.235-0.15-0.357-0.229c-0.19-0.123-0.387-0.251-0.582-0.379c-0.12-0.078-0.237-0.154-0.359-0.234
			c-0.216-0.142-0.439-0.29-0.661-0.437c-0.102-0.068-0.202-0.134-0.306-0.202c-0.251-0.167-0.508-0.338-0.766-0.51
			c-0.081-0.054-0.16-0.107-0.242-0.161c-0.33-0.221-0.665-0.446-1.005-0.674c-8.604-5.785-20.027-13.704-24.409-12.755
			c-5.812,1.258-18.193,27.162-20.72,31.689c-1.791,3.209-8.532,9.437-12.306,12.793c-0.169,0.094-0.325,0.219-0.444,0.393
			c-0.695,0.614-1.264,1.11-1.641,1.436l-8.19-0.917c-0.773-0.191-1.511-0.283-2.166-0.195c-0.437,0.058-0.837,0.196-1.186,0.437
			c-0.174,0.121-0.336,0.267-0.483,0.442c-0.023,0.027-0.039,0.066-0.061,0.095l-2.661-0.298c-0.67-0.166-1.261-0.101-1.473,0.684
			c-0.212,0.785,0.266,1.136,0.93,1.327l2.452,1.071c0.189,1.417,1.41,2.167,2.979,2.619l8.59,3.751l-0.3,1.111
			c-0.186,0.69,0.137,1.376,0.723,1.533l2.574,0.689c0.481,0.129,0.974-0.151,1.244-0.632l0.342,0.099
			c-1.378,1.393-1.965,3.351-1.185,5.955c3.032,10.129-6.381,11.302-3.048,18.41c6.602,14.078,11.52,5.03,24.834,19.973
			C294.579,389.846,296.938,392.047,299.481,394.115L299.481,394.115z M285.646,333.966c0.544-0.414,1.149-0.922,1.777-1.478
			c0.383,0.9,0.856,1.648,1.4,2.265L285.646,333.966z M319.299,337.348c2.066-1.393,5.372-4.659,7.65-7.008
			c0.248,0.477,0.469,0.964,0.669,1.459c-3.616,4.299-7.87,8.623-7.87,8.623c0.257,0.863,0.581,1.597,0.953,2.225l-10.33-2.558
			C313.903,340.058,317.545,338.531,319.299,337.348z M302.648,335.371c0.722,1.663,1.759,2.8,2.973,3.542l-7.749-1.919
			C299.665,336.643,301.349,336.017,302.648,335.371z M293.883,358.676c0.996-3.994,0.88-6.897,0.243-9.1l28.184,8.115
			c-2.434,2.987-4.748,5.08-5.483,5.718c-0.006,0.006-0.013,0.011-0.019,0.017c-0.069,0.06-0.125,0.108-0.163,0.139l0,0
			c-0.04,0.034-0.06,0.051-0.06,0.051c-0.007-0.003-0.013-0.005-0.02-0.008c-0.273-0.121-0.55-0.231-0.829-0.33
			c-0.098-0.035-0.196-0.063-0.294-0.095c-0.19-0.063-0.379-0.126-0.571-0.18c-0.114-0.032-0.227-0.059-0.341-0.088
			c-0.178-0.046-0.355-0.092-0.533-0.132c-0.113-0.025-0.226-0.046-0.339-0.068c-0.179-0.036-0.358-0.071-0.536-0.1
			c-0.105-0.017-0.208-0.032-0.312-0.047c-0.187-0.028-0.372-0.054-0.556-0.076c-0.088-0.01-0.175-0.019-0.262-0.028
			c-0.202-0.021-0.4-0.04-0.596-0.055c-0.062-0.005-0.124-0.009-0.185-0.013c-0.221-0.015-0.435-0.026-0.646-0.034
			c-0.034-0.001-0.068-0.003-0.101-0.004c-0.241-0.008-0.473-0.012-0.697-0.013h-0.001c-1.653-0.004-2.801,0.167-2.801,0.167
			C302.905,358.236,293.883,358.676,293.883,358.676z"/>
		<g>
			<path style="fill:#D89371;" d="M326.031,293.886v-6.478h-19.818c-2.218,3.605-3.48,6.111-4.116,7.255
				c-2.527,4.548-14.908,15.138-14.908,15.138c3.032,8.568,13.519,4.951,16.915,2.65c3.397-2.301,10.159-9.702,10.159-9.702
				C314.588,302.718,329.779,292.229,326.031,293.886z"/>
			<path style="fill:#D89371;" d="M341.226,296.709v-9.301h-18.024c-3.362,5.13-5.12,8.656-5.91,10.078
				c-2.527,4.548-14.908,15.138-14.908,15.138c3.032,8.568,13.519,4.951,16.915,2.65c3.397-2.301,10.159-9.702,10.159-9.702
				C329.783,305.541,344.974,295.052,341.226,296.709z"/>
			<path style="fill:#D89371;" d="M352.285,302.448v-15.039h-11.753c-5.069,8.242-7.41,13.914-8.296,15.817
				c-2.117,4.548-12.489,15.138-12.489,15.138c2.54,8.568,11.324,4.951,14.17,2.65c2.846-2.301,8.51-9.702,8.51-9.702
				C342.699,311.279,355.425,300.791,352.285,302.448z"/>
			<g>
				<defs>
					<path id="SVGID_1_" d="M268.069,309.706c0,0,12.382-10.589,14.908-15.138c2.527-4.548,14.908-30.575,20.72-31.838
						c5.812-1.263,24.005,13.14,31.585,17.435c7.581,4.296,29.059-0.733,34.618,6.077c5.559,6.81,15.414,23.992,24.51,42.691
						c9.097,18.699,14.656,38.913,19.962,48.263c5.306,9.349,12.129,19.709,27.795,41.945C457.835,441.377,496.243,500,496.243,500
						h-89.197c0,0-22.489-67.467-34.87-85.407c-12.381-17.941-20.72-17.688-31.08-20.973c-10.36-3.285-35.28-12.93-48.594-27.943
						c-13.314-15.013-18.233-5.922-24.834-20.067c-3.333-7.141,6.08-8.32,3.048-18.496c-3.032-10.176,14.508-10.599,19.504-5.509
						c2.312,2.356,5.976,5.786,3.664,15.097c0,0,9.022-0.442,13.082,3.854c0,0,5.324-0.813,9.62,1.11
						c0,0,12.887-10.712,12.634-22.335c-0.253-11.623-3.545-17.153-22.254-26.026c0,0-6.73,8.844-11.821,9.349
						c0,0-6.762,7.401-10.159,9.702C281.588,314.656,271.102,318.273,268.069,309.706z"/>
				</defs>
				<use xlink:href="#SVGID_1_"  style="overflow:visible;fill:#EDB08E;"/>
				<clipPath id="SVGID_00000153687056532894535660000013365225709000192171_">
					<use xlink:href="#SVGID_1_"  style="overflow:visible;"/>
				</clipPath>
				<path style="opacity:0.1;clip-path:url(#SVGID_00000153687056532894535660000013365225709000192171_);" d="M397.139,353.806
					l-7.857-2.497c-0.03-0.107-0.063-0.212-0.097-0.317c-0.033-0.102-0.069-0.201-0.105-0.301c-0.051-0.143-0.102-0.286-0.16-0.424
					c-0.044-0.106-0.095-0.209-0.144-0.313c-0.059-0.127-0.116-0.257-0.181-0.38c-0.113-0.214-0.234-0.421-0.363-0.621
					c-0.058-0.089-0.123-0.172-0.184-0.258c-0.086-0.122-0.171-0.244-0.263-0.36c-0.068-0.085-0.141-0.166-0.213-0.248
					c-0.095-0.109-0.19-0.216-0.29-0.319c-0.076-0.077-0.154-0.15-0.233-0.224c-0.106-0.099-0.215-0.195-0.327-0.288
					c-0.081-0.067-0.162-0.132-0.246-0.195c-0.121-0.091-0.246-0.176-0.373-0.258c-0.083-0.054-0.164-0.109-0.25-0.159
					c-0.145-0.086-0.295-0.162-0.446-0.237c-0.075-0.037-0.147-0.078-0.224-0.112c-0.232-0.104-0.469-0.198-0.716-0.276
					l-56.499-17.96c0.039-0.671-0.291-1.281-0.866-1.476l-3.484-1.18c-0.61-0.207-1.288,0.122-1.653,0.748l-62.63-19.908
					c0.05-0.616-0.234-1.182-0.76-1.361l-2.818-0.955c-0.641-0.217-1.37,0.222-1.627,0.98l-0.414,1.222l-10.309-1.832
					c-1.411-0.449-2.737-0.581-3.752,0.031c-0.234,0.141-0.446,0.336-0.645,0.562l-2.943-0.523c-0.735-0.234-1.398-0.203-1.69,0.66
					c-0.293,0.864,0.216,1.291,0.941,1.552l2.655,1.373c0.108,1.6,1.416,2.526,3.131,3.143l9.3,4.811l-0.414,1.222
					c-0.257,0.759,0.055,1.55,0.696,1.767l2.818,0.955c0.528,0.179,1.11-0.091,1.445-0.613l61.82,22.252
					c-0.091,0.718,0.248,1.392,0.858,1.598l3.484,1.18c0.575,0.195,1.208-0.089,1.585-0.646l55.782,20.079
					c2.376,0.855,4.954,0.289,7.039-1.275l2.223,0.8l0,0l5.533,1.992c2.677,0.964,5.755-0.858,6.834-4.046
					C401.187,357.986,399.85,354.668,397.139,353.806z"/>
			</g>
			<g>
				<g>
					<g style="opacity:0.1;">
						<path d="M345.157,387.977c-6.056-2.07-26.146-9.128-45.676-15.669c13.756,11.237,32.87,18.54,41.614,21.313
							c10.36,3.285,18.699,3.032,31.08,20.973c12.382,17.94,34.87,85.407,34.87,85.407h6.542c0,0-24.969-70.078-37.35-89.417
							S355.517,391.518,345.157,387.977z"/>
					</g>
				</g>
			</g>
			<g>
				<path style="fill:#7F7F7F;" d="M394.041,353.607l11.943,3.455c2.733,0.791,5.688-1.224,6.562-4.474
					c0.874-3.25-0.672-6.475-3.433-7.162l-12.064-3.002L394.041,353.607z"/>
				<path style="fill:#7F7F7F;" d="M394.041,353.607l11.943,3.455c2.733,0.791,5.688-1.224,6.562-4.474
					c0.874-3.25-0.672-6.475-3.433-7.162l-12.064-3.002L394.041,353.607z"/>
				<path style="fill:#7F7F7F;" d="M394.041,353.607l11.943,3.455c2.733,0.791,5.688-1.224,6.562-4.474
					c0.874-3.25-0.672-6.475-3.433-7.162l-12.064-3.002L394.041,353.607z"/>
				<path style="fill:#666666;" d="M403.598,350.182c0.584-2.17,0.468-4.332-0.192-6.176l-6.358-1.582l-3.008,11.183l6.293,1.821
					C401.83,354.164,403.015,352.352,403.598,350.182z"/>
				<path style="fill:#7F7F7F;" d="M244.607,308.63l3.495,1.534l0.904-3.362l-3.793-0.427c-0.748-0.186-1.408-0.114-1.645,0.767
					C243.332,308.022,243.866,308.416,244.607,308.63z"/>
				<path style="fill:#7F7F7F;" d="M250.669,312.768l10.743,4.714l2.78-10.335l-11.658-1.311c-2.299-0.572-4.327-0.35-5.055,2.357
					C246.75,310.9,248.393,312.109,250.669,312.768z"/>
				<path style="fill:#666666;" d="M262.628,312.962l1.564-5.815l-11.658-1.311c-2.299-0.572-4.327-0.349-5.055,2.357
					c-0.064,0.237-0.087,0.449-0.116,0.663L262.628,312.962z"/>
				<path style="fill:#7F7F7F;" d="M263.338,319.526l127.784,36.967c4.235,1.225,8.813-1.897,10.168-6.933
					c1.354-5.036-1.041-10.033-5.319-11.098l-129.087-32.119L263.338,319.526z"/>
				<path style="fill:#666666;" d="M401.631,347.551c0.333-4.292-1.955-8.166-5.66-9.088l-129.087-32.119l-1.246,4.631
					L401.631,347.551z"/>
				<path style="fill:#FBB03B;" d="M348.789,335.44c-0.338,1.257,0.392,2.553,1.643,2.914l41.623,12.041
					c1.454,0.421,3.026-0.651,3.491-2.38c0.465-1.729-0.357-3.445-1.826-3.81l-42.047-10.462
					C350.409,333.429,349.127,334.184,348.789,335.44L348.789,335.44z"/>
				<path style="fill:#FBB03B;" d="M333.928,321.775l3.552,0.955c0.729,0.196,1.132,1.054,0.9,1.917l-4.01,14.909
					c-0.232,0.862-1.011,1.402-1.74,1.207l-3.553-0.956c-0.729-0.196-1.132-1.054-0.9-1.917l4.01-14.909
					C332.42,322.12,333.199,321.579,333.928,321.775z"/>
				<path style="fill:#FBB03B;" d="M264.835,304.677l2.873,0.773c0.654,0.176,1.015,0.946,0.807,1.719l-3.352,12.462
					c-0.208,0.773-0.907,1.258-1.561,1.082l-2.873-0.773c-0.654-0.176-1.015-0.945-0.807-1.719l3.352-12.461
					C263.482,304.986,264.181,304.501,264.835,304.677z"/>
			</g>
			<path style="fill:#EDB08E;" d="M296.136,336.739c-1.349-0.075-2.253-0.037-2.253-0.037c2.312-9.311-1.352-12.742-3.664-15.097
				c-4.996-5.091-22.536-4.668-19.504,5.509c3.032,10.176-6.381,11.355-3.048,18.496c6.602,14.145,11.52,5.054,24.834,20.067
				c1.13,1.274,2.353,2.503,3.635,3.697V336.739z"/>
			<path style="fill:#EDB08E;" d="M296.136,270.794c-5.531,8.418-11.491,20.772-13.159,23.774
				c-2.527,4.548-14.908,15.138-14.908,15.138c3.032,8.568,13.519,4.951,16.915,2.65c3.397-2.301,10.159-9.702,10.159-9.702
				c0.324-0.032,0.657-0.109,0.992-0.206V270.794z"/>
			<path style="opacity:0.1;" d="M328.107,275.545L328.107,275.545c0.232,0.157,8.164,7.02,26.609,14.727
				c18.446,7.707-1.393-8.012-1.393-8.012l-0.001-0.001c-7.003-0.13-14.254,0.05-18.039-2.095
				C333.42,279.109,330.913,277.44,328.107,275.545z"/>
			<path style="opacity:0.1;" d="M306.965,293.305c0,0-2.322-2.021-3.164-5.306c0,0-0.579,5.568,1.185,7.669L306.965,293.305z"/>
			<path style="opacity:0.1;" d="M267.667,345.61c0,0,2.78-7.291,9.349-7.141c0,0-7.987,4.105-8.668,8.529L267.667,345.61z"/>
		</g>
	</g>
	<g>
		<defs>
			<path id="SVGID_00000138545962098345720460000010008990641882095505_" d="M181.129,246.852
				c-14.228,3.196-22.23,11.301-25.106,14.778c-0.212,0.25-0.42,0.51-0.624,0.78c-0.411,0.536-0.614,0.846-0.614,0.846
				s-8.911,1.475-11.972,6.532c0,0-5.375,0.331-9.168,3.118c0,0-5.259-2.742-9.986-7.366c-13.322,18.617-16.356,44.59-7.304,65.651
				c1.413-0.737,2.85-1.483,4.317-2.323c9.431-5.401,31.749-20.096,41.588-37.585c8.027-14.267,13.983-11.678,17.785-18.502
				c0.001-0.001,0.002-0.002,0.003-0.003c4.238-4.475,5.211-8.404,14.583-13.955C199.685,255.831,193.704,244.028,181.129,246.852z"
				/>
		</defs>
		<use xlink:href="#SVGID_00000138545962098345720460000010008990641882095505_"  style="overflow:visible;fill:#EDB08E;"/>
		<clipPath id="SVGID_00000029730184453117707800000015180735044425683378_">
			<use xlink:href="#SVGID_00000138545962098345720460000010008990641882095505_"  style="overflow:visible;"/>
		</clipPath>
		<path style="opacity:0.1;clip-path:url(#SVGID_00000029730184453117707800000015180735044425683378_);fill:#FFFFFF;" d="
			M188.106,251.881c-6.399,1.873-13.137,7.146-11.776,8.665c1.36,1.519,7.678,7.364,9.342,5.621
			c1.664-1.743,10.585-5.368,8.26-9.428C191.606,252.678,189.95,251.341,188.106,251.881z"/>
		<g style="opacity:0.1;clip-path:url(#SVGID_00000029730184453117707800000015180735044425683378_);">
			<path d="M169.672,269.988c1.181,0.074,2.284,0.394,3.348,0.802c1.058,0.42,2.065,0.956,3.008,1.588
				c0.943,0.631,1.821,1.36,2.61,2.181c0.781,0.829,1.495,1.73,2.008,2.797c-1.09-0.458-2.046-1.014-2.992-1.569
				c-0.938-0.564-1.846-1.145-2.741-1.748c-0.895-0.602-1.777-1.222-2.654-1.877C171.387,271.494,170.51,270.822,169.672,269.988z"
				/>
		</g>
	</g>
	<g>
		<path style="opacity:0.1;" d="M75.333,402.579C71.037,433.999,62.941,480.815,59.667,500h12.01
			c4.034-32.585,16.193-127.425,23.053-144.062c7.016-17.018,13.958-20.746,21.627-24.746c1.413-0.737,2.85-1.483,4.317-2.323
			c4.556-2.609,12.118-7.39,19.827-13.603c-22.914,8.656-38.651,15.434-46.5,23.201C89.402,343.017,80.667,363.579,75.333,402.579z"
			/>
	</g>
</g>
<g id="DESIGNED_BY_FREEPIK">
	<g>
		<g id="XMLID_319_">
			<g id="XMLID_338_">
				<path id="XMLID_346_" style="fill:#1D262D;" d="M260.104,465.465c-0.432,0.443-0.803,0.931-1.108,1.453l-0.465-0.241
					c-0.067-0.298-0.349-0.503-0.659-0.466c-0.331,0.039-0.568,0.339-0.529,0.67s0.339,0.568,0.67,0.529
					c0.065-0.008,0.127-0.026,0.184-0.052l0.451,0.234c-0.251,0.554-0.433,1.139-0.539,1.744l0.746,0.132
					c0.23-1.306,0.85-2.507,1.792-3.473L260.104,465.465z"/>
				<path id="XMLID_345_" style="fill:#1D262D;" d="M265.592,463.163c-0.171,0-0.341,0.006-0.51,0.017l-0.074-0.626
					c0.188-0.149,0.296-0.389,0.266-0.645c-0.046-0.393-0.402-0.674-0.795-0.628s-0.674,0.402-0.628,0.795
					c0.03,0.254,0.189,0.461,0.405,0.564l0.073,0.624c-0.714,0.116-1.403,0.332-2.06,0.646l0.327,0.684
					c0.934-0.447,1.942-0.673,2.995-0.673c0.496,0,0.993,0.053,1.475,0.158l0.161-0.741
					C266.693,463.222,266.142,463.163,265.592,463.163z"/>
				<path id="XMLID_344_" style="fill:#1D262D;" d="M272.194,465.711c0.331-0.04,0.566-0.341,0.525-0.672
					c-0.04-0.331-0.341-0.566-0.672-0.526c-0.309,0.038-0.535,0.304-0.53,0.609l-0.416,0.363c-0.418-0.43-0.89-0.813-1.408-1.139
					l-0.404,0.641c1.134,0.715,2.021,1.726,2.563,2.925l0.691-0.313c-0.251-0.554-0.568-1.072-0.942-1.545l0.402-0.351
					C272.065,465.716,272.129,465.719,272.194,465.711z"/>
				<path id="XMLID_343_" style="fill:#1D262D;" d="M265.044,473.372c-0.386,0.023-0.775,0.035-1.157,0.035
					c-0.88,0-1.733-0.061-2.478-0.179c-0.39-0.062-0.846-0.155-1.27-0.292c1.046,1.861,3.069,3.125,5.388,3.125
					c2.855,0,5.262-1.916,5.95-4.504c-0.682,0.449-1.505,0.825-2.459,1.123C267.839,473.047,266.464,473.286,265.044,473.372z"/>
				<path id="XMLID_339_" style="fill:#1D262D;" d="M265.592,464.68c-3.352,0-6.08,2.666-6.08,5.943
					c0,0.426,0.046,0.849,0.137,1.261c0.674,0.483,2.706,0.89,5.348,0.731c2.879-0.173,5.297-0.957,6.672-2.159
					c-0.005-0.195-0.021-0.39-0.045-0.582C271.244,466.913,268.65,464.68,265.592,464.68z M263.432,471.194
					c-1.02,0-1.85-0.83-1.85-1.85c0-1.02,0.83-1.85,1.85-1.85c1.02,0,1.85,0.83,1.85,1.85
					C265.282,470.365,264.452,471.194,263.432,471.194z M268.17,470.286c-0.75,0-1.36-0.61-1.36-1.36s0.61-1.361,1.36-1.361
					c0.75,0,1.361,0.61,1.361,1.361S268.92,470.286,268.17,470.286z"/>
			</g>
			<path id="XMLID_336_" style="fill:#1D262D;" d="M281.595,466.547c-0.295-0.116-0.806-0.309-1.382-0.237
				c-0.551,0.069-0.844,0.341-0.844,1.007v0.866h2.228v1.717h-2.228v5.455h-1.932v-5.455h-1.34v-1.717h1.34v-0.888
				c0-1.68,0.896-2.783,2.568-2.783c0.642,0,1.157,0.122,1.59,0.308L281.595,466.547z"/>
			<path id="XMLID_334_" style="fill:#1D262D;" d="M286.298,469.879c-0.177-0.03-0.358-0.046-0.526-0.046
				c-0.896,0-1.51,0.548-1.51,1.614v3.908h-1.932v-7.172h1.873v0.785c0.451-0.673,1.14-0.977,2.021-0.977
				c0.414,0,0.848,0.128,1.094,0.337L286.298,469.879z"/>
			<path id="XMLID_331_" style="fill:#1D262D;" d="M293.965,471.757c0,0.222-0.015,0.489-0.037,0.651h-5.085
				c0.207,1.036,0.933,1.488,1.843,1.488c0.622,0,1.295-0.252,1.813-0.688l1.132,1.243c-0.814,0.748-1.85,1.088-3.057,1.088
				c-2.198,0-3.723-1.495-3.723-3.753c0-2.258,1.48-3.797,3.627-3.797C292.544,467.99,293.958,469.522,293.965,471.757z
				 M288.851,471.091h3.175c-0.177-0.918-0.733-1.436-1.562-1.436C289.554,469.655,289.021,470.203,288.851,471.091z"/>
			<path id="XMLID_328_" style="fill:#1D262D;" d="M301.618,471.757c0,0.222-0.015,0.489-0.037,0.651h-5.085
				c0.207,1.036,0.932,1.488,1.843,1.488c0.622,0,1.295-0.252,1.813-0.688l1.132,1.243c-0.814,0.748-1.85,1.088-3.057,1.088
				c-2.198,0-3.723-1.495-3.723-3.753c0-2.258,1.48-3.797,3.627-3.797C300.197,467.99,301.611,469.522,301.618,471.757z
				 M296.504,471.091h3.175c-0.178-0.918-0.733-1.436-1.562-1.436C297.207,469.655,296.674,470.203,296.504,471.091z"/>
			<path id="XMLID_325_" style="fill:#1D262D;" d="M309.964,471.764c0,2.154-1.495,3.775-3.471,3.775
				c-0.962,0-1.643-0.378-2.109-0.933v3.708h-1.924v-10.133h1.887v0.792c0.466-0.585,1.155-0.984,2.139-0.984
				C308.469,467.99,309.964,469.61,309.964,471.764z M304.287,471.764c0,1.132,0.747,1.976,1.843,1.976
				c1.14,0,1.85-0.881,1.85-1.976c0-1.095-0.71-1.976-1.85-1.976C305.035,469.788,304.287,470.632,304.287,471.764z"/>
			<path id="XMLID_322_" style="fill:#1D262D;" d="M313.068,465.836c0,0.696-0.54,1.229-1.236,1.229
				c-0.696,0-1.229-0.533-1.229-1.229c0-0.696,0.533-1.243,1.229-1.243C312.527,464.592,313.068,465.14,313.068,465.836z
				 M312.809,475.354h-1.932v-7.172h1.932V475.354z"/>
			<path id="XMLID_320_" style="fill:#1D262D;" d="M316.032,470.736l2.702-2.554h2.368l-3.479,3.375l3.501,3.797h-2.376
				l-2.716-2.901v2.901H314.1v-10.658h1.932V470.736z"/>
		</g>
		<g>
			<path style="fill:#1D262D;" d="M184.412,475.289v-1.055c-0.527,0.718-1.391,1.23-2.387,1.23c-1.846,0-3.149-1.406-3.149-3.706
				c0-2.256,1.289-3.721,3.149-3.721c0.952,0,1.816,0.469,2.387,1.245v-3.765h1.099v9.77H184.412z M184.412,473.37v-3.208
				c-0.395-0.615-1.245-1.143-2.124-1.143c-1.421,0-2.27,1.172-2.27,2.739c0,1.567,0.85,2.724,2.27,2.724
				C183.168,474.483,184.017,473.986,184.412,473.37z"/>
			<path style="fill:#1D262D;" d="M186.932,471.744c0-2.051,1.465-3.706,3.486-3.706c2.139,0,3.398,1.67,3.398,3.794v0.279h-5.727
				c0.088,1.333,1.025,2.446,2.549,2.446c0.805,0,1.626-0.322,2.182-0.894l0.527,0.718c-0.703,0.703-1.655,1.084-2.812,1.084
				C188.44,475.465,186.932,473.956,186.932,471.744z M190.403,468.947c-1.509,0-2.256,1.274-2.314,2.358h4.643
				C192.718,470.25,192.015,468.947,190.403,468.947z"/>
			<path style="fill:#1D262D;" d="M194.607,474.351l0.571-0.791c0.469,0.542,1.362,1.011,2.329,1.011c1.084,0,1.67-0.513,1.67-1.216
				c0-1.714-4.38-0.659-4.38-3.281c0-1.098,0.952-2.036,2.636-2.036c1.201,0,2.051,0.454,2.622,1.026l-0.513,0.762
				c-0.424-0.513-1.201-0.894-2.109-0.894c-0.967,0-1.567,0.483-1.567,1.113c0,1.552,4.38,0.527,4.38,3.281
				c0,1.187-0.952,2.138-2.783,2.138C196.306,475.465,195.325,475.113,194.607,474.351z"/>
			<path style="fill:#1D262D;" d="M201.477,466.471c0-0.41,0.337-0.747,0.732-0.747c0.41,0,0.747,0.337,0.747,0.747
				c0,0.41-0.337,0.732-0.747,0.732C201.814,467.203,201.477,466.881,201.477,466.471z M201.667,475.289v-7.075h1.099v7.075H201.667
				z"/>
			<path style="fill:#1D262D;" d="M204.582,477.105l0.556-0.82c0.586,0.703,1.289,0.967,2.3,0.967c1.172,0,2.27-0.571,2.27-2.124
				v-1.011c-0.513,0.718-1.377,1.26-2.373,1.26c-1.845,0-3.149-1.377-3.149-3.662c0-2.27,1.289-3.677,3.149-3.677
				c0.952,0,1.802,0.469,2.373,1.245v-1.069h1.098v6.87c0,2.344-1.641,3.076-3.369,3.076
				C206.237,478.16,205.417,477.926,204.582,477.105z M209.709,473.253v-3.091c-0.381-0.615-1.23-1.143-2.109-1.143
				c-1.421,0-2.27,1.128-2.27,2.695c0,1.553,0.849,2.695,2.27,2.695C208.478,474.41,209.328,473.868,209.709,473.253z"/>
			<path style="fill:#1D262D;" d="M217.413,475.289v-4.629c0-1.245-0.63-1.641-1.582-1.641c-0.865,0-1.685,0.527-2.095,1.099v5.17
				h-1.099v-7.075h1.099v1.025c0.498-0.586,1.464-1.201,2.519-1.201c1.48,0,2.256,0.747,2.256,2.285v4.966H217.413z"/>
			<path style="fill:#1D262D;" d="M219.932,471.744c0-2.051,1.465-3.706,3.486-3.706c2.139,0,3.398,1.67,3.398,3.794v0.279h-5.727
				c0.088,1.333,1.025,2.446,2.549,2.446c0.806,0,1.626-0.322,2.183-0.894l0.527,0.718c-0.703,0.703-1.655,1.084-2.812,1.084
				C221.441,475.465,219.932,473.956,219.932,471.744z M223.404,468.947c-1.509,0-2.256,1.274-2.314,2.358h4.643
				C225.718,470.25,225.015,468.947,223.404,468.947z"/>
			<path style="fill:#1D262D;" d="M233.35,475.289v-1.055c-0.527,0.718-1.392,1.23-2.388,1.23c-1.846,0-3.149-1.406-3.149-3.706
				c0-2.256,1.289-3.721,3.149-3.721c0.952,0,1.817,0.469,2.388,1.245v-3.765h1.098v9.77H233.35z M233.35,473.37v-3.208
				c-0.396-0.615-1.245-1.143-2.124-1.143c-1.421,0-2.27,1.172-2.27,2.739c0,1.567,0.849,2.724,2.27,2.724
				C232.105,474.483,232.954,473.986,233.35,473.37z"/>
			<path style="fill:#1D262D;" d="M239.692,475.289v-9.77h1.098v3.765c0.572-0.776,1.421-1.245,2.388-1.245
				c1.845,0,3.149,1.465,3.149,3.721c0,2.299-1.304,3.706-3.149,3.706c-0.996,0-1.86-0.513-2.388-1.23v1.055H239.692z
				 M242.9,474.483c1.436,0,2.285-1.157,2.285-2.724c0-1.568-0.85-2.739-2.285-2.739c-0.864,0-1.728,0.527-2.109,1.143v3.208
				C241.171,473.986,242.036,474.483,242.9,474.483z"/>
			<path style="fill:#1D262D;" d="M247.528,477.061c0.161,0.073,0.425,0.117,0.601,0.117c0.483,0,0.805-0.161,1.055-0.747
				l0.469-1.069l-2.959-7.148h1.187l2.358,5.8l2.344-5.8h1.201l-3.545,8.51c-0.425,1.025-1.143,1.421-2.08,1.435
				c-0.234,0-0.601-0.044-0.805-0.103L247.528,477.061z"/>
		</g>
	</g>
</g>
</svg>
